HIERARCHY
ROOT Hips
{
	OFFSET 0.00000 0.00000 0.00000
	CHANNELS 6 Xposition Yposition Zposition Zrotation Yrotation Xrotation 
	JOINT LHipJoint
	{
		OFFSET 0 0 0
		CHANNELS 3 Zrotation Yrotation Xrotation
		JOINT LeftHip
		{
			OFFSET 1.28858 -1.83292 1.03970
			CHANNELS 3 Zrotation Yrotation Xrotation
			JOINT LeftKnee
			{
				OFFSET 2.47846 -6.80952 0.00000
				CHANNELS 3 Zrotation Yrotation Xrotation
				JOINT LeftAnkle
				{
					OFFSET 2.75274 -7.56311 0.00000
					CHANNELS 3 Zrotation Yrotation Xrotation
					JOINT LeftToe
					{
						OFFSET 0.12848 -0.35301 1.68223
						CHANNELS 3 Zrotation Yrotation Xrotation
						End Site
						{
							OFFSET 0.00000 -0.00000 0.87311
						}
					}
				}
			}
		}
	}
	JOINT RHipJoint
	{
		OFFSET 0 0 0
		CHANNELS 3 Zrotation Yrotation Xrotation
		JOINT RightHip
		{
			OFFSET -1.31183 -1.83292 1.03970
			CHANNELS 3 Zrotation Yrotation Xrotation
			JOINT RightKnee
			{
				OFFSET -2.44740 -6.72417 0.00000
				CHANNELS 3 Zrotation Yrotation Xrotation
				JOINT RightAnkle
				{
					OFFSET -2.67343 -7.34519 0.00000
					CHANNELS 3 Zrotation Yrotation Xrotation
					JOINT RightToe
					{
						OFFSET -0.16914 -0.46471 1.77626
						CHANNELS 3 Zrotation Yrotation Xrotation
						End Site
						{
							OFFSET -0.00000 -0.00000 0.92777
						}
					}
				}
			}
		}
	}
	JOINT lowerback
	{
		OFFSET 0 0 0
		CHANNELS 3 Zrotation Yrotation Xrotation
		JOINT Chest
		{
			OFFSET 0.01249 2.14252 0.03842
			CHANNELS 3 Zrotation Yrotation Xrotation
			JOINT Chest2
			{
				OFFSET -0.02957 2.14199 -0.03751
				CHANNELS 3 Zrotation Yrotation Xrotation
				JOINT lowerneck
				{
					OFFSET 0 0 0
					CHANNELS 3 Zrotation Yrotation Xrotation
					JOINT Neck
					{
						OFFSET -0.01678 1.65709 -0.05476
						CHANNELS 3 Zrotation Yrotation Xrotation
						JOINT Head
						{
							OFFSET 0.07912 1.58331 -0.11843
							CHANNELS 3 Zrotation Yrotation Xrotation
							End Site
							{
								OFFSET 0.03298 1.73940 -0.04271
							}
						}
					}
				}
				JOINT LeftCollar
				{
					OFFSET 0 0 0
					CHANNELS 3 Zrotation Yrotation Xrotation
					JOINT LeftShoulder
					{
						OFFSET 3.39556 1.16496 0.08673
CHANNELS 3 Zrotation Xrotation Yrotation
						JOINT LeftElbow
						{
OFFSET 0 -5.239100 -0.000000
CHANNELS 3 Zrotation Xrotation Yrotation
							JOINT LeftWrist
							{
OFFSET 0 -3.314670 0.000000
CHANNELS 3 Zrotation Xrotation Yrotation
								JOINT lhand
								{
									OFFSET 0 0 0
CHANNELS 3 Zrotation Xrotation Yrotation
									JOINT LFingers
									{
OFFSET 0 -0.965900 0.000000
CHANNELS 3 Zrotation Xrotation Yrotation
										End Site
										{
OFFSET 0 -0.778730 0.000000
										}
									}
								}
								JOINT LThumb
								{
OFFSET 0 0.000000 0.000000
CHANNELS 3 Zrotation Xrotation Yrotation
									End Site
									{
OFFSET 0 -0.790620 0.790620
									}
								}
							}
						}
					}
				}
				JOINT RightCollar
				{
					OFFSET 0 0 0
					CHANNELS 3 Zrotation Yrotation Xrotation
					JOINT RightShoulder
					{
						OFFSET -3.27193 1.31331 0.33940
CHANNELS 3 Zrotation Xrotation Yrotation
						JOINT RightElbow
						{
OFFSET 0 -5.302520 0.000000
CHANNELS 3 Zrotation Xrotation Yrotation
							JOINT RightWrist
							{
OFFSET 0 -3.678750 0.000000
CHANNELS 3 Zrotation Xrotation Yrotation
								JOINT rhand
								{
									OFFSET 0 0 0
CHANNELS 3 Zrotation Xrotation Yrotation
									JOINT RFingers
									{
OFFSET 0 -0.594810 0.000000
CHANNELS 3 Zrotation Xrotation Yrotation
										End Site
										{
OFFSET 0 -0.479550 0.000000
										}
									}
								}
								JOINT RThumb
								{
OFFSET 0 0.000000 0.000000
CHANNELS 3 Zrotation Xrotation Yrotation
									End Site
									{
OFFSET 0 -0.486870 0.486870
									}
								}
							}
						}
					}
				}
			}
		}
	}
}
MOTION
Frames: 11
Frame Time: 0.008333333333333333
10.020400 21.592600 -18.318200 -0.008500 1.284500 5.917000 0.000000 0.000000 0.000000 -15.630900 -2.212700 4.464100 0.000600 0.163000 0.447900 0.160200 -4.735400 -7.368000 0.071100 1.719900 4.732300 0.000000 0.000000 0.000000 19.346500 7.306300 9.426500 -0.023100 0.982200 -2.699900 -0.833800 -7.782900 -21.766100 -1.205500 -6.965700 19.613900 1.164800 -1.293600 -10.542000 -2.117400 -1.753500 -1.714100 -3.104600 -0.842000 4.018500 -8.006600 -12.494600 2.312100 8.854700 -17.605400 9.388500 3.245900 -8.757600 3.932700 -0.000000 -0.000000 0.000000 8.107100 6.046200 -27.442000 13.204200 -21.585600 2.527900 6.564500 -10.985700 14.205500 0.000000 0.000000 0.000000 -7.125000 0.000000 0.000000 -14.199600 15.960500 -10.065300 -0.000000 -0.000000 0.000000 0.754400 10.104700 11.767200 -11.541200 -19.113000 -1.949400 -8.636200 2.592500 35.484400 0.000000 0.000000 0.000000 7.125000 0.000000 -0.000000 30.453700 63.210200 -14.121900
10.025288 21.580738 -18.315866 0.130703 1.289059 5.961165 0.000000 0.000000 0.000000 -15.805153 -2.164440 4.387202 0.000960 0.199633 0.548535 0.153140 -4.946171 -7.278949 0.081738 1.843824 5.074402 0.000000 0.000000 0.000000 19.184255 7.291410 9.433725 -0.025317 1.026829 -2.822686 -0.846459 -7.769600 -21.871168 -1.122799 -6.730756 18.920205 -1.363109 -1.590560 -11.127876 -0.367513 -1.926296 -1.345801 0.092709 -0.972593 4.863001 -8.896289 -12.409196 3.724502 8.029084 -17.272677 6.204885 3.499907 -8.702852 2.824760 0.000000 0.000000 0.000000 5.290798 5.159145 -27.239107 13.401704 -21.872726 2.601210 6.178253 -10.810438 12.353672 0.000000 0.000000 0.000000 -7.125000 0.000000 0.000000 -14.568347 17.780676 -9.744081 0.000000 0.000000 0.000000 -2.234727 9.781424 12.650530 -11.465136 -18.997679 -1.924634 -2.558106 2.802948 32.492731 0.000000 0.000000 0.000000 7.125000 0.000000 0.000000 33.399101 59.271733 -12.347050
10.029987 21.571853 -18.313646 0.111707 1.257623 5.987824 0.000000 0.000000 0.000000 -15.823453 -2.255718 4.463255 0.000662 0.161597 0.444070 0.158524 -4.847449 -7.359983 0.083898 1.868227 5.141576 0.000000 0.000000 0.000000 19.187430 7.196786 9.362777 -0.026100 1.042800 -2.866500 -0.840849 -7.648697 -21.725435 -1.121261 -6.726285 18.906978 -1.395226 -1.556241 -11.117754 -0.346825 -1.878099 -1.337962 0.139779 -0.949625 4.866835 -8.567739 -12.367763 4.613331 7.783604 -17.149754 4.567652 3.732498 -8.675575 2.255624 0.000000 0.000000 0.000000 5.328221 5.026312 -27.442137 13.565673 -22.110419 2.662477 6.436071 -10.853695 12.585099 0.000000 0.000000 0.000000 -7.125000 0.000000 0.000000 -14.378364 17.544629 -9.685200 0.000000 0.000000 0.000000 -2.281681 9.754867 11.308052 -11.392489 -18.887311 -1.901109 3.635226 3.038259 29.544991 0.000000 0.000000 0.000000 7.125000 0.000000 0.000000 36.731846 55.494652 -10.493761
10.033938 21.562848 -18.312327 0.073467 1.228408 6.028135 0.000000 0.000000 0.000000 -15.806166 -2.349185 4.527224 0.000362 0.117705 0.323437 0.163730 -4.724483 -7.434060 0.085120 1.881320 5.177709 0.000000 0.000000 0.000000 19.228182 7.169141 9.286418 -0.026419 1.049173 -2.884180 -0.833428 -7.611141 -21.628505 -1.110888 -6.696164 18.818315 -1.504382 -1.550701 -11.190795 -0.246639 -1.860955 -1.296137 0.305648 -0.944474 4.957813 -8.517388 -12.315062 5.436549 7.988622 -17.064982 3.200778 3.908676 -8.648991 1.661060 0.000000 0.000000 0.000000 5.212527 4.806809 -27.488351 13.658376 -22.244194 2.697469 6.733312 -10.878415 12.928208 0.000000 0.000000 0.000000 -7.125000 0.000000 0.000000 -14.155415 17.197431 -9.637479 0.000000 0.000000 0.000000 -2.400931 9.861388 11.506874 -11.280070 -18.716226 -1.864837 4.555053 5.189186 26.850039 0.000000 0.000000 0.000000 7.125000 0.000000 0.000000 35.439975 53.118441 -7.870357
10.037791 21.554818 -18.311011 0.051528 1.213257 6.077408 0.000000 0.000000 0.000000 -15.805032 -2.445056 4.594746 0.000082 0.060717 0.166868 0.168922 -4.577029 -7.504334 0.080920 1.834643 5.048764 0.000000 0.000000 0.000000 19.256593 7.203980 9.224326 -0.026441 1.049075 -2.883843 -0.830246 -7.619085 -21.605225 -1.119702 -6.721840 18.893784 -1.500535 -1.550250 -11.249825 -0.237134 -1.860052 -1.289575 0.311748 -0.944220 4.997786 -8.585436 -12.241911 6.096012 8.343999 -16.974820 2.240925 4.131510 -8.619265 1.262422 0.000000 0.000000 0.000000 5.201207 4.661804 -27.428051 13.744736 -22.368612 2.730254 7.009411 -10.932537 13.306452 0.000000 0.000000 0.000000 -7.125000 0.000000 0.000000 -13.947217 16.815421 -9.607080 0.000000 0.000000 0.000000 -2.359291 10.088977 12.336940 -11.204004 -18.600219 -1.840455 2.649504 7.632817 25.344891 0.000000 0.000000 0.000000 7.125000 0.000000 0.000000 32.647191 52.192742 -6.341778
10.041761 21.547864 -18.309120 0.046600 1.209807 6.122779 0.000000 0.000000 0.000000 -15.824748 -2.537328 4.678071 0.000000 -0.003479 -0.009394 0.173656 -4.432942 -7.568495 0.075651 1.774089 4.881724 0.000000 0.000000 0.000000 19.277534 7.311535 9.209235 -0.026301 1.047119 -2.878352 -0.832565 -7.670142 -21.666836 -1.149173 -6.806758 19.144025 -1.493109 -1.559293 -11.313387 -0.238801 -1.871668 -1.291861 0.302340 -0.949835 5.030598 -8.721518 -12.168388 6.541246 8.666642 -16.893645 1.685239 4.324093 -8.591262 1.039370 0.000000 0.000000 0.000000 5.165361 4.539138 -27.258926 13.828699 -22.489349 2.762294 7.252170 -10.982642 13.571500 0.000000 0.000000 0.000000 -7.125000 0.000000 0.000000 -13.769220 16.544660 -9.560890 0.000000 0.000000 0.000000 -2.299917 10.345460 13.510989 -11.172672 -18.552363 -1.830455 -0.628799 9.782635 25.025050 0.000000 0.000000 0.000000 7.125000 0.000000 0.000000 29.438492 52.480620 -5.830604
10.046406 21.542218 -18.305825 0.065905 1.214244 6.158471 0.000000 0.000000 0.000000 -15.880456 -2.617520 4.767836 0.000138 -0.061353 -0.168466 0.177445 -4.327607 -7.623964 0.070055 1.707563 4.698070 0.000000 0.000000 0.000000 19.274309 7.456727 9.245456 -0.026338 1.047998 -2.880865 -0.838751 -7.736779 -21.775162 -1.201242 -6.953632 19.578091 -1.514343 -1.574562 -11.379925 -0.236447 -1.888131 -1.296737 0.312464 -0.958381 5.063555 -8.801552 -12.114004 6.726339 8.766117 -16.831915 1.519721 4.395585 -8.565726 0.963950 0.000000 0.000000 0.000000 5.088384 4.409260 -26.993742 13.888815 -22.575477 2.785263 7.433798 -10.995130 13.674420 0.000000 0.000000 0.000000 -7.125000 0.000000 0.000000 -13.641398 16.434768 -9.500370 0.000000 0.000000 0.000000 -2.270733 10.505717 14.310707 -11.195283 -18.586944 -1.837687 -2.847596 11.014395 25.360007 0.000000 0.000000 0.000000 7.125000 0.000000 0.000000 27.589221 53.160633 -5.891618
10.051000 21.537812 -18.301834 0.086794 1.222885 6.183054 0.000000 0.000000 0.000000 -15.939065 -2.683083 4.846187 0.000278 -0.103979 -0.285738 0.179347 -4.262370 -7.649660 0.069950 1.706067 4.694040 0.000000 0.000000 0.000000 19.273434 7.601249 9.312971 -0.026713 1.054991 -2.900145 -0.842103 -7.826872 -21.876369 -1.255349 -7.102846 20.020337 -1.536876 -1.591401 -11.438496 -0.234775 -1.906494 -1.299650 0.322388 -0.967982 5.094242 -8.813625 -12.081571 6.749452 8.709540 -16.791830 1.563654 4.380267 -8.545656 0.965926 0.000000 0.000000 0.000000 5.008581 4.243209 -26.656337 13.893540 -22.582274 2.787081 7.541244 -10.965786 13.746053 0.000000 0.000000 0.000000 -7.125000 0.000000 0.000000 -13.565448 16.359141 -9.467231 0.000000 0.000000 0.000000 -2.248421 10.564135 14.672071 -11.238021 -18.652184 -1.851316 -3.882422 11.484356 25.816336 0.000000 0.000000 0.000000 7.125000 0.000000 0.000000 26.909609 53.749054 -6.132498
10.055182 21.534768 -18.298161 0.104544 1.246780 6.202929 0.000000 0.000000 0.000000 -15.984051 -2.718197 4.878278 0.000400 -0.122725 -0.337239 0.177528 -4.232210 -7.609750 0.073561 1.749378 4.813457 0.000000 0.000000 0.000000 19.275261 7.706196 9.379377 -0.027389 1.068511 -2.937416 -0.836725 -7.959960 -21.932830 -1.283525 -7.179237 20.247603 -1.558997 -1.615169 -11.483962 -0.233511 -1.934437 -1.302654 0.330490 -0.982204 5.117675 -8.789956 -12.065246 6.675398 8.581301 -16.767614 1.703172 4.322386 -8.530657 1.007274 0.000000 0.000000 0.000000 4.937679 4.028065 -26.266361 13.823267 -22.481490 2.760173 7.582608 -10.925657 13.866148 0.000000 0.000000 0.000000 -7.125000 0.000000 0.000000 -13.531931 16.239492 -9.478727 0.000000 0.000000 0.000000 -2.221059 10.554002 14.701410 -11.294621 -18.738386 -1.869451 -4.078996 11.441466 26.235983 0.000000 0.000000 0.000000 7.125000 0.000000 0.000000 26.998703 54.157023 -6.434602
10.058840 21.533297 -18.295966 0.123961 1.300204 6.222912 0.000000 0.000000 0.000000 -16.017423 -2.732048 4.851581 0.000342 -0.117252 -0.322155 0.172308 -4.222827 -7.505897 0.078846 1.811057 4.983710 0.000000 0.000000 0.000000 19.270298 7.762014 9.424017 -0.028146 1.083175 -2.977700 -0.824928 -8.117917 -21.951595 -1.287318 -7.189456 20.277826 -1.585968 -1.645286 -11.496081 -0.235922 -1.970678 -1.308425 0.337113 -1.000518 5.119853 -8.757073 -12.067884 6.520903 8.439503 -16.766077 1.914884 4.248167 -8.525458 1.086614 0.000000 0.000000 0.000000 4.879374 3.779557 -25.874046 13.715884 -22.327041 2.719264 7.636814 -10.938431 14.146157 0.000000 0.000000 0.000000 -7.125000 0.000000 0.000000 -13.482746 15.962367 -9.525511 0.000000 0.000000 0.000000 -2.171903 10.522317 14.593935 -11.362828 -18.842276 -1.891488 -4.032670 11.274766 26.553172 0.000000 0.000000 0.000000 7.125000 0.000000 0.000000 27.255141 54.429486 -6.690500
10.062528 21.532903 -18.295208 0.140441 1.393829 6.246822 0.000000 0.000000 0.000000 -16.040934 -2.759762 4.786665 0.000203 -0.096838 -0.266005 0.165826 -4.210010 -7.374180 0.082836 1.856079 5.108007 0.000000 0.000000 0.000000 19.257924 7.764195 9.436033 -0.028692 1.094313 -3.008387 -0.812140 -8.262753 -21.951951 -1.282115 -7.175410 20.236119 -1.601034 -1.668813 -11.467145 -0.250166 -1.999909 -1.320338 0.327107 -1.014960 5.091884 -8.693518 -12.096616 6.311672 8.287081 -16.796357 2.187080 4.157419 -8.534941 1.194447 0.000000 0.000000 0.000000 4.841604 3.530215 -25.561662 13.618063 -22.186043 2.682168 7.809079 -11.040023 14.688615 0.000000 0.000000 0.000000 -7.125000 0.000000 0.000000 -13.344115 15.421177 -9.582505 0.000000 0.000000 0.000000 -2.079006 10.486435 14.444173 -11.433643 -18.949841 -1.914362 -4.087086 11.197623 26.785233 0.000000 0.000000 0.000000 7.125000 0.000000 0.000000 27.360719 54.644773 -6.867953
